<svg height="511pt" viewBox="0 0 511.99962 511" width="511pt" xmlns="http://www.w3.org/2000/svg" xmlns:xlink="http://www.w3.org/1999/xlink"><linearGradient id="linear0" gradientUnits="userSpaceOnUse" x1="-.00019" x2="511.9993938416" y1="256.4956019208" y2="256.4956019208"><stop offset="0" stop-color="#80d8ff"/><stop offset="1" stop-color="#ea80fc"/></linearGradient><path d="m491.996094 393.824219h-471.992188c-11.046875 0-19.99999975 8.957031-19.99999975 20 0 54.40625 44.26171875 98.667969 98.66406275 98.667969h314.664062c54.402344 0 98.664063-44.261719 98.664063-98.667969 0-11.042969-8.957032-20-20-20zm-78.664063 78.667969h-314.664062c-25.328125 0-46.960938-16.132813-55.152344-38.667969h424.96875c-8.195313 22.535156-29.824219 38.667969-55.152344 38.667969zm-393.328125-274.664063h471.992188c11.042968 0 20-8.953125 20-20 0-97.777344-79.550782-177.328125-177.332032-177.328125h-157.332031c-97.777343 0-177.32812475 79.550781-177.32812475 177.328125 0 11.046875 8.95312475 20 19.99999975 20zm157.328125-157.328125h157.332031c68.9375 0 126.167969 51.046875 135.878907 117.328125h-429.085938c9.707031-66.28125 66.941407-117.328125 135.875-117.328125zm334.121094 197.378906c2.550781 10.746094-4.09375 21.523438-14.839844 24.078125l-118 27.996094c-7.027343 1.671875-2.050781 1.511719-122.613281-26.902344l-113.378906 26.902344c-8.203125 1.949219-4.914063.289063-127.234375-27.996094-10.746094-2.554687-17.390625-13.332031-14.84375-24.078125 2.550781-10.75 13.332031-17.394531 24.078125-14.84375l113.378906 26.902344 113.382812-26.902344c8.179688-1.941406 2.804688-.773437 122.613282 26.902344l113.382812-26.902344c10.746094-2.546875 21.527344 4.09375 24.074219 14.84375zm.542969 97.28125c0 11.046875-8.957032 20-20 20h-471.992188c-11.046875 0-19.99999975-8.953125-19.99999975-20s8.95312475-20 19.99999975-20h471.992188c11.042968 0 20 8.953125 20 20zm0 0" fill="url(#linear0)"/></svg>