<svg height="496pt" viewBox="0 0 496 496" width="496pt" xmlns="http://www.w3.org/2000/svg" xmlns:xlink="http://www.w3.org/1999/xlink"><linearGradient id="a" gradientUnits="userSpaceOnUse" x1="7.48" x2="494.592" y1="488.52" y2="1.408"><stop offset="0" stop-color="#003f8a"/><stop offset=".518" stop-color="#00d7df"/><stop offset="1" stop-color="#006df0"/></linearGradient><g fill="url(#a)"><path d="m248 0c-136.964844 0-248 111.035156-248 248s111.035156 248 248 248 248-111.035156 248-248c-.175781-136.894531-111.105469-247.824219-248-248zm0 480c-128.128906 0-232-103.871094-232-232s103.871094-232 232-232 232 103.871094 232 232c-.148438 128.066406-103.933594 231.851562-232 232zm0 0"/><path d="m248 40c-114.875 0-208 93.125-208 208s93.125 208 208 208 208-93.125 208-208c-.109375-114.828125-93.171875-207.890625-208-208zm162.238281 105.441406-86.078125 100.796875-10.640625-44.957031v-.320312l-36.480469-142.640626c54.90625 8.425782 103.480469 40.195313 133.199219 87.121094zm-98.957031 116-35.042969 42.558594h-56.476562l-34.5625-42 12.878906-53.039062 50-24.082032 50.722656 23.679688zm-63.28125-205.441406c4.078125 0 8.078125.160156 12.078125.398438l33.761719 132.160156-42.480469-19.839844c-.078125 0-.078125-.078125-.160156-.078125l-136-59.121094c35.671875-34.359375 83.273437-53.542969 132.800781-53.519531zm-192 192c-.03125-46.417969 16.828125-91.261719 47.441406-126.160156l125.359375 54.558594-41.121093 19.839843-131.28125 63.601563c-.238282-3.917969-.398438-7.839844-.398438-11.839844zm2.160156 28.800781 121.28125-58.722656-10.722656 44-34.160156 140.722656c-41.1875-30.1875-68.675782-75.519531-76.398438-126zm189.839844 163.199219c-35.003906.03125-69.34375-9.542969-99.28125-27.679688l31.761719-130.878906 29.28125 35.679688h.078125c.082031.160156.160156.320312.320312.320312l95.601563 113.679688c-18.6875 5.894531-38.167969 8.886718-57.761719 8.878906zm73.761719-14.71875-88.640625-105.28125h192.800781c-19.320313 47.5625-56.808594 85.453125-104.160156 105.28125zm-24.722657-121.28125 29.039063-35.359375.160156-.160156 92.402344-108.242188c14.054687 27.117188 21.378906 57.21875 21.359375 87.761719-.015625 18.972656-2.816406 37.84375-8.320312 56zm0 0"/></g></svg>